<svg xmlns="http://www.w3.org/2000/svg" viewBox="0 0 512 512" width="512" height="512">
  <defs>
    <linearGradient id="bgGrad" x1="0%" y1="0%" x2="100%" y2="100%">
      <stop offset="0%" stop-color="#4f46e5" />
      <stop offset="50%" stop-color="#6366f1" />
      <stop offset="100%" stop-color="#06b6d4" />
    </linearGradient>
    <linearGradient id="heartGrad" x1="0%" y1="0%" x2="100%" y2="100%">
      <stop offset="0%" stop-color="#f43f5e" />
      <stop offset="100%" stop-color="#fb7185" />
    </linearGradient>
    <filter id="shadow" x="-20%" y="-20%" width="140%" height="140%">
      <feDropShadow dx="0" dy="12" stdDeviation="16" flood-color="#0f172a" flood-opacity="0.25"/>
    </filter>
  </defs>
  <!-- Background with smooth rounded corners -->
  <rect width="512" height="512" rx="112" fill="url(#bgGrad)" />
  
  <!-- Network Connection Nodes -->
  <!-- Left Node (Friend A) -->
  <g filter="url(#shadow)">
    <circle cx="176" cy="200" r="64" fill="#ffffff" fill-opacity="0.95" />
    <circle cx="176" cy="184" r="26" fill="#6366f1" />
    <path d="M140 236 C140 216, 212 216, 212 236 Z" fill="#6366f1" />
  </g>

  <!-- Right Node (Friend B) -->
  <g filter="url(#shadow)">
    <circle cx="336" cy="200" r="64" fill="#ffffff" fill-opacity="0.95" />
    <circle cx="336" cy="184" r="26" fill="#06b6d4" />
    <path d="M300 236 C300 216, 372 216, 372 236 Z" fill="#06b6d4" />
  </g>

  <!-- Connecting Dynamic Arc Bridge -->
  <path d="M196 230 C 230 270, 282 270, 316 230" fill="none" stroke="#ffffff" stroke-width="12" stroke-linecap="round" stroke-dasharray="1 1" />
  <path d="M196 230 C 230 270, 282 270, 316 230" fill="none" stroke="#ffffff" stroke-width="8" stroke-linecap="round" />

  <!-- Heart / Intimacy symbol at center -->
  <g transform="translate(256, 310)" filter="url(#shadow)">
    <circle cx="0" cy="0" r="48" fill="#ffffff" />
    <path d="M0 16 C-24 -4, -30 -30, -10 -40 C5 -46, 12 -28, 0 -14 C-12 -28, -5 -46, 10 -40 C30 -30, 24 -4, 0 16 Z" 
          fill="url(#heartGrad)" transform="translate(0, 10) scale(1.1)" />
  </g>

  <!-- Notification / Pulse Ring -->
  <circle cx="376" cy="148" r="16" fill="#10b981" stroke="#ffffff" stroke-width="4" />
</svg>